<?xml version="1.0" encoding="UTF-8"?>
<svg id="Capa_2" data-name="Capa 2" xmlns="http://www.w3.org/2000/svg" viewBox="0 0 191.64 191.64">
  <defs>
    <style>
      .cls-1 {
        fill: #101213;
      }

      .cls-2 {
        fill: #e3321f;
      }
    </style>
  </defs>
  <g id="Capa_1-2" data-name="Capa 1">
    <g>
      <path class="cls-2" d="M95.82,0C42.9,0,0,42.9,0,95.82s42.9,95.82,95.82,95.82,95.82-42.9,95.82-95.82S148.75,0,95.82,0"/>
      <path class="cls-1" d="M154.44,105.47c-1.94,2.78-4.37,5.2-7.15,7.15-.67.46-8.73,4.81-8.9,4.17,5.16,18.4-11.38,34.63-29.29,31.5-2.31,2.21-4.88,4.13-7.65,5.73-7.12,4.02-15.63,5.56-23.73,4.37-1.02-.19-2.04-.35-3.04-.57l-2.98-.84c-1.88-.64-3.91-1.44-5.66-2.33h-.04c-29.1-16.11-42.06-52.56-28.53-83.14,17.75-40.71,70.53-51.64,102.9-21.19,13.78,12.96,26.61,37.3,14.07,55.18v-.02Z"/>
      <g>
        <path class="cls-2" d="M130.12,117.69c-3.56-.1-7.18-.94-10.47-2.42,1.46,7.96.36,16.56-3.73,24.13,3.85,0,7.7-1.24,10.77-3.67,5.41-4.1,8.07-11.35,6.81-18.1-1.11.08-2.24.11-3.38.05h0Z"/>
        <path class="cls-2" d="M93.99,41.38c-21,.63-40.88,13.92-49.07,33.34-3.29,7.79-4.92,15.98-4.48,24.45.62,11.59,4.89,22.95,12.19,31.97,7.33,9.08,18.82,17.61,30.92,17.87,8.29.17,19.72-3.91,23.74-11.88.02-.04.04-.07.04-.07,2.68-3.77,4.46-8.26,4.99-13.17,1.98-17.1-12.22-32.03-29.19-31.96-9.36.03-18.39,4.37-25.01,11.02-.73.73-1.91-.14-1.45-1.07,4.95-9.88,16.25-15.99,27.19-16.11,4.24-.05,8.47.71,12.46,2.15,1.33.48,10.39,4,10.24,5.61.7-7.27,4.72-14.32,10.14-19.04,4.61-3.93,10.4-6.55,16.46-6.35.38.02.81.09,1.27.2.74.17.66,1.24-.09,1.33-5.53.57-10.81,4.18-14.32,8.18-4.99,5.78-8.72,14.83-5.57,22.33,2.75,6.57,10.38,9.87,17.09,9.58,2.52-.11,4.92-.71,7.16-1.68,2.3-.96,4.39-2.36,6.15-4.13v.02c.31-.3.54-.63.82-.94.13-.15.28-.31.41-.47,4.85-5.75,5.57-13.51,3.81-20.68-.33-1.33-.73-2.63-1.21-3.9-.04-.11-.08-.23-.12-.33-.24-.62-.49-1.23-.75-1.84-9.05-21.02-30.89-35.11-53.78-34.43h-.02Z"/>
      </g>
    </g>
  </g>
</svg>